<?xml version="1.0" encoding="UTF-8" standalone="no"?>
<svg version="1.0" viewBox="0 0 2542.5796 736.63082" preserveAspectRatio="xMidYMid meet" id="svg912" sodipodi:docname="logo-dc.svg" inkscape:version="1.1.1 (c3084ef, 2021-09-22)" shape-rendering="crispEdges"
   xmlns:inkscape="http://www.inkscape.org/namespaces/inkscape"
   xmlns:sodipodi="http://sodipodi.sourceforge.net/DTD/sodipodi-0.dtd"
   xmlns="http://www.w3.org/2000/svg"
   xmlns:svg="http://www.w3.org/2000/svg">
   <defs id="defs916" />
   <sodipodi:namedview id="namedview914" pagecolor="#505050" bordercolor="#eeeeee" borderopacity="1" inkscape:pageshadow="0" inkscape:pageopacity="0" inkscape:pagecheckerboard="0" inkscape:document-units="px" showgrid="false" inkscape:zoom="0.39392456" inkscape:cx="1867.1088" inkscape:cy="449.32461" inkscape:window-width="2560" inkscape:window-height="1080" inkscape:window-x="0" inkscape:window-y="0" inkscape:window-maximized="0" inkscape:current-layer="svg912" width="2917.0806px" inkscape:showpageshadow="true" showborder="true" scale-x="2.3" units="mm" fit-margin-top="0" fit-margin-left="0" fit-margin-right="0" fit-margin-bottom="0" />
   <g transform="matrix(0.03836466,0,0,-0.03968989,-263.18157,1261.3521)" fill="#000000" stroke="none" id="g910">
      <path d="m 7119,31766 c -102,-27 -181,-95 -228,-196 l -26,-55 -3,-6267 -2,-6268 h 2550 2550 l 2,3733 3,3732 27,52 c 35,66 85,116 151,151 l 52,27 h 2125 c 2339,0 2218,3 2570,-61 1714,-313 3056,-1659 3364,-3374 44,-245 56,-397 66,-810 5,-218 16,-490 25,-605 89,-1195 390,-2317 909,-3380 337,-690 729,-1296 1211,-1875 150,-180 393,-450 404,-450 9,0 204,215 332,365 778,912 1366,1954 1745,3090 432,1297 570,2710 398,4083 -232,1862 -1019,3595 -2273,5007 -169,191 -521,545 -714,717 -1041,936 -2232,1609 -3542,2003 -752,226 -1485,349 -2295,385 -354,16 -9342,12 -9401,-4 z" id="path824" />
      <path d="m 29285,31773 c -2079,-71 -4052,-828 -5645,-2164 -96,-81 -204,-174 -240,-207 l -65,-59 58,-64 c 318,-352 499,-570 718,-864 675,-908 1198,-1944 1525,-3023 74,-246 156,-563 205,-792 18,-85 36,-159 40,-164 4,-5 20,16 35,45 14,30 60,110 102,179 450,750 1137,1345 1957,1695 249,106 593,208 880,260 355,64 105,59 3375,65 l 2975,5 56,26 c 69,33 129,91 166,161 l 28,53 v 2305 2305 l -27,50 c -35,68 -97,128 -166,162 l -57,28 -2920,1 c -1606,0 -2956,-1 -3000,-3 z" id="path826" />
      <path d="m 40295,31766 c -20,-14 -20,-28 -23,-1010 -2,-987 -2,-996 18,-1016 18,-18 33,-20 148,-20 189,0 172,-32 172,329 0,218 3,300 12,309 9,9 76,12 238,12 353,0 466,18 625,95 108,52 188,121 248,213 60,91 84,153 103,263 28,161 7,307 -66,454 -89,180 -251,302 -480,361 -94,25 -964,33 -995,10 z m 875,-316 c 139,-22 255,-110 301,-228 17,-44 22,-78 22,-147 0,-122 -26,-189 -102,-266 -99,-99 -187,-118 -528,-119 -188,0 -224,2 -237,16 -14,13 -16,61 -16,369 0,308 2,356 16,369 13,14 50,16 247,16 128,0 261,-5 297,-10 z" id="path828" />
      <path d="m 43585,31766 c -20,-14 -20,-26 -20,-1016 0,-980 0,-1002 19,-1016 29,-21 263,-20 294,2 22,15 22,16 22,315 0,188 4,308 10,320 10,18 23,19 223,19 156,0 217,-3 229,-12 8,-7 108,-153 221,-325 113,-171 214,-316 225,-322 12,-7 81,-11 169,-11 172,0 196,8 177,57 -6,15 -104,164 -217,330 -114,167 -207,311 -207,321 0,14 18,26 70,46 239,94 367,277 386,553 24,341 -169,629 -486,724 -73,22 -90,23 -585,26 -438,4 -513,2 -530,-11 z m 1005,-324 c 157,-51 254,-192 253,-367 0,-171 -77,-285 -228,-341 -44,-16 -89,-19 -370,-22 -295,-3 -320,-2 -332,14 -10,14 -13,97 -13,360 0,305 2,344 16,359 15,15 49,16 328,12 196,-2 324,-8 346,-15 z" id="path830" />
      <path d="m 46980,31760 c -20,-20 -20,-33 -20,-1010 0,-977 0,-990 20,-1010 20,-20 33,-20 693,-20 593,0 675,2 695,16 21,14 22,22 22,143 0,111 -2,130 -18,144 -17,15 -68,17 -530,17 -451,0 -512,2 -526,16 -14,13 -16,51 -16,259 0,208 2,246 16,259 14,14 70,16 469,16 h 454 l 15,22 c 12,17 16,50 16,140 0,105 -2,120 -20,138 -19,19 -33,20 -475,20 -439,0 -455,1 -465,19 -6,12 -10,113 -10,260 0,204 2,242 16,255 14,14 75,16 528,16 484,0 514,1 529,18 14,15 17,41 17,144 0,108 -2,127 -18,141 -17,16 -80,17 -695,17 -664,0 -677,0 -697,-20 z" id="path832" />
      <path d="m 50160,31760 c -20,-20 -20,-33 -20,-1010 0,-977 0,-990 20,-1010 18,-18 33,-20 148,-20 99,0 132,3 150,16 l 22,15 v 409 c 0,394 1,410 19,420 13,6 175,10 459,10 412,0 440,1 455,18 14,15 17,41 17,145 0,119 -1,127 -22,141 -20,14 -80,16 -463,16 -330,0 -444,3 -453,12 -9,9 -12,81 -12,265 0,239 1,253 19,263 13,6 195,10 523,10 379,0 507,3 516,12 8,8 12,55 12,144 0,126 -1,134 -22,148 -20,14 -102,16 -685,16 -650,0 -663,0 -683,-20 z" id="path834" />
      <path d="m 53287,31762 c -16,-17 -17,-102 -17,-1015 v -996 l 22,-15 c 20,-14 102,-16 695,-16 660,0 673,0 693,20 18,18 20,33 20,138 0,90 -4,123 -16,140 l -15,22 h -510 c -333,0 -517,4 -530,10 -18,10 -19,24 -19,263 0,184 3,256 12,265 9,9 126,12 463,12 374,0 455,2 471,14 16,12 19,29 22,121 4,116 0,146 -24,169 -14,14 -70,16 -468,16 -338,0 -455,3 -464,12 -9,9 -12,81 -12,265 0,239 1,253 19,263 13,6 197,10 530,10 h 510 l 15,22 c 12,17 16,50 16,140 0,105 -2,120 -20,138 -20,20 -33,20 -698,20 -645,0 -680,-1 -695,-18 z" id="path836" />
      <path d="m 56494,31759 c -18,-20 -19,-52 -19,-1011 v -990 l 24,-19 c 20,-16 40,-19 151,-19 110,0 129,2 143,18 16,17 17,102 17,1015 v 996 l -22,15 c -17,13 -51,16 -149,16 -115,0 -128,-2 -145,-21 z" id="path838" />
      <path d="m 58582,31764 c -21,-14 -22,-22 -22,-148 0,-89 4,-136 12,-144 9,-9 86,-12 284,-12 234,0 275,-2 288,-16 14,-14 16,-105 16,-854 v -839 l 22,-15 c 18,-13 50,-16 148,-16 69,0 130,4 136,8 33,22 34,47 34,885 0,752 2,835 16,841 9,3 134,6 279,6 226,0 266,2 279,16 13,12 16,40 16,144 0,122 -1,130 -22,144 -20,14 -107,16 -743,16 -636,0 -723,-2 -743,-16 z" id="path840" />
      <path d="m 65463,31765 -23,-16 v -999 -999 l 22,-15 c 18,-13 51,-16 150,-16 183,0 168,-32 168,350 v 310 l 23,5 c 12,3 114,4 227,3 l 205,-3 212,-319 c 117,-176 222,-325 235,-332 16,-9 70,-13 171,-14 134,0 149,2 167,20 17,17 19,24 9,43 -7,12 -104,157 -217,322 -113,165 -207,307 -209,316 -6,20 8,29 82,59 170,67 281,183 342,357 25,72 27,90 28,233 0,145 -2,161 -29,244 -56,171 -175,310 -329,385 -154,76 -142,75 -707,78 -450,3 -507,2 -527,-12 z m 1032,-334 c 81,-33 163,-115 195,-196 32,-79 34,-223 6,-305 -26,-75 -109,-158 -191,-191 -58,-23 -70,-24 -378,-27 -235,-2 -322,0 -333,9 -19,16 -21,708 -1,728 9,9 83,12 327,9 304,-4 317,-4 375,-27 z" id="path842" />
      <path d="m 69521,31763 c -12,-11 -201,-429 -449,-993 -236,-536 -432,-983 -435,-993 -4,-11 1,-25 13,-37 18,-18 34,-20 173,-20 115,0 157,3 173,14 11,8 55,93 98,193 44,98 88,186 99,196 18,16 55,17 496,16 262,0 484,-4 495,-8 12,-5 48,-72 102,-192 45,-101 93,-192 105,-201 18,-15 43,-18 174,-18 126,0 156,3 169,16 9,8 16,21 16,28 0,25 -871,1991 -887,2004 -12,8 -63,12 -169,12 -130,0 -155,-3 -173,-17 z m 193,-485 c 36,-56 368,-819 362,-833 -5,-13 -50,-15 -383,-13 -372,3 -378,3 -381,23 -2,16 310,733 359,828 13,23 26,22 43,-5 z" id="path844" />
      <path d="m 61809,31743 c -7,-19 -9,-239 -6,-673 3,-568 6,-654 21,-719 42,-179 112,-309 226,-421 111,-109 212,-164 388,-212 65,-18 105,-21 257,-21 163,-1 189,2 277,25 54,15 139,48 190,74 131,67 254,191 320,319 103,201 108,247 108,1003 0,404 -4,620 -10,633 -10,17 -23,19 -159,19 -109,0 -151,-3 -159,-13 -8,-9 -12,-218 -14,-662 l -3,-650 -28,-79 c -48,-135 -127,-230 -240,-287 -107,-55 -304,-75 -435,-44 -148,35 -278,135 -337,260 -58,123 -58,116 -62,810 -3,430 -8,644 -15,652 -8,10 -51,13 -159,13 h -149 z" id="path846" />
      <path d="m 50030,28349 c -963,-84 -1757,-708 -2055,-1614 -288,-875 -66,-1842 570,-2481 363,-365 821,-592 1350,-670 226,-33 551,-28 766,11 151,28 200,30 251,7 34,-15 140,-112 408,-373 l 363,-354 -109,-5 c -118,-6 -161,-21 -190,-66 -25,-37 -21,-105 9,-158 13,-24 525,-731 1137,-1572 612,-840 1119,-1543 1126,-1561 19,-45 17,-110 -5,-158 -10,-22 -530,-742 -1156,-1600 -626,-858 -1146,-1578 -1156,-1600 -36,-77 -17,-140 54,-177 l 42,-23 h 850 850 l 56,26 c 31,15 71,42 90,61 19,19 331,469 693,999 362,530 670,977 685,992 79,86 198,73 269,-27 16,-23 316,-462 667,-976 350,-514 658,-956 683,-982 25,-26 68,-57 96,-70 l 51,-23 h 850 850 l 42,23 c 77,40 91,104 45,193 -15,30 -542,755 -1170,1612 -662,903 -1150,1576 -1158,1600 -17,47 -13,111 10,155 8,15 513,707 1122,1537 609,831 1121,1531 1137,1557 59,94 44,183 -38,219 -42,19 -73,19 -897,17 -971,-3 -889,4 -981,-93 -27,-27 -328,-455 -669,-950 -736,-1067 -665,-968 -703,-994 -57,-39 -151,-25 -201,31 -12,12 -308,442 -659,953 -350,512 -653,947 -673,968 -20,20 -57,47 -82,60 -45,22 -47,22 -696,27 l -651,5 294,279 c 162,153 303,293 314,310 24,39 24,92 0,131 -10,17 -128,143 -263,280 -135,138 -252,264 -261,282 -36,69 -22,104 90,234 552,639 718,1539 437,2379 -47,141 -176,401 -262,530 -335,500 -818,839 -1402,984 -80,20 -199,43 -265,51 -150,20 -417,27 -555,14 z m 335,-1209 c 607,-59 975,-505 975,-1180 0,-501 -203,-881 -567,-1064 -174,-87 -350,-122 -577,-113 -232,8 -403,60 -570,172 -232,154 -371,376 -442,705 -26,121 -27,477 -1,600 117,554 488,868 1052,888 17,1 75,-3 130,-8 z" id="path848" />
      <path d="m 59370,28353 c -835,-61 -1561,-528 -1914,-1231 -187,-371 -266,-762 -253,-1246 8,-310 46,-534 134,-796 174,-521 522,-934 1003,-1193 631,-339 1586,-413 2291,-177 195,65 393,168 559,291 103,75 290,263 315,315 22,46 22,111 2,150 -30,56 -489,599 -525,621 -27,17 -53,23 -93,23 -51,0 -63,-5 -150,-61 -190,-122 -454,-233 -649,-273 -386,-78 -895,-24 -1195,126 -144,72 -265,185 -329,308 -57,107 -48,172 29,206 11,5 676,11 1545,14 l 1525,5 40,22 c 52,28 100,78 120,126 41,99 41,567 -1,842 -157,1041 -824,1733 -1825,1895 -206,33 -453,46 -629,33 z m 415,-1199 c 246,-43 471,-162 590,-311 62,-79 114,-186 127,-264 12,-75 3,-109 -39,-136 -26,-17 -80,-18 -938,-21 -636,-2 -921,0 -948,8 -54,16 -71,47 -64,123 13,149 151,342 325,455 122,79 312,141 489,161 114,13 344,5 458,-15 z" id="path850" />
      <path d="m 69405,28349 c -970,-90 -1755,-719 -2014,-1612 -32,-109 -80,-336 -82,-383 0,-16 -11,30 -24,101 -67,370 -205,696 -412,973 -73,97 -245,276 -343,355 -340,275 -772,441 -1265,487 -65,6 -502,10 -1078,10 -1079,0 -1014,4 -1059,-69 l -23,-36 v -2210 c 0,-2192 0,-2210 20,-2244 11,-19 33,-43 48,-55 28,-21 31,-21 955,-24 987,-3 1120,1 1367,43 719,122 1282,530 1586,1150 104,213 162,394 204,640 l 22,129 7,-59 c 12,-103 55,-300 92,-416 228,-720 746,-1213 1512,-1438 403,-119 961,-151 1395,-80 499,81 930,300 1208,614 34,39 68,84 75,102 19,43 17,101 -4,140 -26,48 -486,599 -518,619 -16,11 -51,20 -88,22 -60,3 -62,2 -166,-63 -214,-135 -448,-230 -680,-277 -100,-20 -143,-23 -340,-22 -162,0 -257,5 -340,17 -409,63 -687,215 -808,445 -55,104 -52,160 11,198 31,19 70,19 1557,24 1380,5 1528,7 1561,21 57,26 105,75 129,131 22,49 24,70 28,300 10,526 -65,902 -257,1293 -115,233 -238,402 -422,580 -210,203 -432,341 -722,449 -322,120 -774,178 -1132,145 z m 465,-1195 c 250,-43 460,-153 589,-309 55,-66 119,-195 132,-268 13,-76 -8,-126 -61,-144 -26,-9 -266,-12 -938,-12 -1006,-1 -959,-4 -988,65 -20,49 -11,99 36,199 128,274 398,440 786,485 106,12 327,4 444,-16 z m -4676,-69 c 457,-69 714,-330 803,-815 22,-120 25,-486 5,-600 -74,-419 -252,-660 -577,-776 -170,-61 -239,-68 -615,-69 -297,0 -339,2 -366,17 -68,37 -64,-25 -64,1120 0,963 1,1035 18,1068 33,67 49,70 392,70 219,0 333,-4 404,-15 z" id="path852" />
      <path d="m 39161,28262 c -19,-9 -44,-30 -55,-45 l -21,-28 -3,-2215 -2,-2215 21,-40 c 15,-30 32,-46 65,-60 43,-20 67,-20 1057,-16 891,3 1026,6 1127,21 701,105 1217,409 1562,921 186,275 309,606 364,977 34,232 29,630 -12,867 -162,952 -808,1620 -1742,1801 -241,47 -317,50 -1352,50 -909,0 -977,-1 -1009,-18 z m 2009,-1176 c 436,-66 692,-312 792,-761 29,-132 37,-487 14,-643 -71,-478 -302,-740 -737,-833 -96,-21 -130,-23 -451,-23 -336,-1 -347,0 -375,20 -61,45 -58,-19 -58,1119 0,1013 1,1041 19,1072 37,61 48,63 391,63 219,0 338,-4 405,-14 z" id="path854" />
      <path d="m 43531,28262 c -19,-9 -44,-30 -55,-45 l -21,-28 v -1432 c 0,-1335 1,-1439 18,-1542 38,-233 103,-434 194,-605 309,-578 885,-919 1728,-1022 168,-20 785,-17 985,5 369,41 720,106 965,177 225,66 295,107 336,195 18,39 19,115 19,2125 0,2063 0,2085 -20,2118 -11,18 -34,41 -52,52 -32,20 -48,20 -570,18 -525,-3 -537,-3 -565,-24 -15,-11 -36,-36 -45,-55 -17,-32 -18,-132 -18,-1654 0,-1142 -3,-1632 -11,-1659 -14,-49 -54,-88 -107,-104 -95,-29 -260,-44 -482,-45 -256,0 -383,15 -540,65 -299,96 -467,260 -542,533 l -23,80 -5,1392 -5,1391 -25,27 c -53,57 -36,55 -602,55 -478,0 -526,-2 -557,-18 z" id="path856" />
      <path d="m 52875,28261 c -16,-10 -39,-28 -50,-41 -20,-22 -20,-38 -23,-1414 -2,-955 0,-1425 8,-1499 48,-474 256,-893 589,-1184 319,-279 742,-451 1301,-530 178,-25 794,-25 1025,0 426,47 775,114 1050,204 167,54 207,80 251,163 18,34 19,107 22,2120 2,1971 1,2087 -15,2119 -10,19 -31,44 -46,55 -28,21 -40,21 -560,24 -369,2 -540,-1 -558,-8 -15,-7 -40,-25 -55,-41 l -29,-30 -5,-1652 c -5,-1510 -6,-1655 -21,-1682 -22,-39 -47,-61 -89,-79 -126,-51 -629,-68 -850,-28 -248,45 -409,120 -540,252 -96,95 -143,177 -182,316 l -23,79 -5,1392 c -5,1388 -5,1392 -26,1420 -47,64 -35,63 -614,63 -494,0 -527,-1 -555,-19 z" id="path858" />
      <path d="m 41191,22980 c -663,-46 -1259,-245 -1786,-595 -187,-125 -332,-242 -499,-405 -300,-292 -514,-588 -701,-965 -148,-299 -241,-575 -304,-898 -51,-262 -65,-413 -65,-712 0,-299 14,-450 65,-712 90,-464 272,-905 529,-1288 129,-191 245,-330 435,-520 185,-185 266,-255 442,-381 788,-563 1798,-776 2861,-604 1046,170 1931,751 2447,1605 115,190 150,270 149,334 0,31 -8,70 -17,87 -22,42 -86,96 -134,113 -21,7 -252,98 -513,201 -261,104 -513,203 -560,222 -114,44 -190,46 -244,5 -20,-16 -71,-80 -112,-143 -339,-516 -820,-807 -1442,-874 -162,-18 -504,-8 -652,18 -306,55 -579,168 -806,335 -38,28 -123,105 -189,171 -304,305 -489,726 -536,1216 -14,150 -6,422 16,565 132,847 667,1433 1450,1590 315,63 676,59 989,-11 214,-47 450,-148 631,-268 219,-147 363,-293 520,-531 51,-77 103,-150 116,-161 37,-33 84,-54 123,-54 24,0 252,87 652,247 558,223 621,250 660,287 85,83 79,143 -36,344 -358,627 -842,1085 -1475,1397 -414,204 -826,320 -1315,370 -184,18 -538,26 -699,15 z" id="path860" />
      <path d="m 47823,22979 c -324,-14 -696,-51 -1043,-105 -313,-48 -858,-165 -1090,-234 -114,-34 -179,-111 -180,-211 0,-58 235,-1059 260,-1109 29,-57 81,-97 142,-109 61,-13 77,-11 318,48 389,95 772,157 1185,192 209,18 671,16 833,-4 431,-54 720,-178 885,-382 61,-76 132,-218 156,-316 26,-104 44,-268 39,-348 -11,-148 -68,-180 -268,-151 -167,24 -533,51 -815,60 -736,24 -1295,-42 -1787,-209 -526,-180 -917,-467 -1181,-866 -289,-438 -399,-1090 -281,-1673 129,-643 561,-1144 1234,-1430 571,-243 1222,-333 2197,-304 991,30 1647,120 2295,317 181,55 220,80 259,167 l 24,53 v 2040 c 0,2216 1,2154 -56,2550 -142,987 -569,1561 -1368,1839 -438,153 -1044,216 -1758,185 z m 542,-4099 c 397,-20 781,-64 861,-99 50,-23 89,-71 104,-131 8,-31 10,-209 8,-585 -3,-536 -3,-540 -25,-582 -40,-74 -88,-95 -313,-133 -263,-44 -503,-60 -898,-60 -430,0 -666,28 -902,106 -370,123 -550,348 -550,688 0,379 217,624 654,736 104,26 296,56 411,63 121,8 457,6 650,-3 z" id="path862" />
      <path d="m 63833,22979 c -471,-20 -960,-81 -1453,-179 -237,-48 -546,-120 -680,-160 -113,-34 -179,-111 -180,-211 0,-51 231,-1044 257,-1102 25,-58 82,-103 145,-116 59,-13 91,-8 254,33 387,98 828,171 1249,207 209,18 671,16 833,-5 681,-83 1009,-344 1071,-851 22,-180 11,-283 -35,-326 -34,-32 -93,-34 -304,-10 -577,64 -1220,74 -1658,26 -1013,-112 -1716,-490 -2088,-1122 -177,-300 -267,-635 -281,-1048 -34,-1000 484,-1716 1494,-2065 526,-182 1112,-247 1980,-222 1001,30 1679,125 2323,325 123,38 139,46 181,87 87,87 81,-102 76,2210 -4,2198 -2,2123 -57,2503 -129,884 -475,1426 -1105,1732 -483,235 -1153,332 -2022,294 z m 542,-4099 c 401,-20 779,-63 861,-100 48,-21 88,-69 103,-125 7,-27 11,-216 11,-565 0,-349 -4,-538 -11,-565 -13,-49 -51,-100 -87,-119 -67,-35 -393,-85 -687,-106 -219,-16 -731,-13 -902,5 -554,59 -866,235 -970,548 -24,73 -27,97 -27,222 -1,165 9,215 69,341 94,195 285,328 580,404 103,26 295,56 410,63 118,8 465,6 650,-3 z" id="path864" />
      <path d="m 69990,22979 c -948,-64 -1744,-477 -2130,-1104 -185,-300 -280,-661 -280,-1060 0,-924 505,-1543 1543,-1889 284,-95 556,-158 1197,-276 468,-86 670,-142 853,-237 234,-121 325,-317 265,-573 -40,-169 -199,-309 -418,-370 -242,-66 -622,-66 -988,0 -486,88 -1082,326 -1520,607 -143,91 -213,94 -295,9 -68,-69 -694,-1005 -708,-1059 -31,-114 30,-183 361,-404 832,-555 1720,-808 2735,-779 851,24 1497,244 1942,661 319,299 498,652 569,1125 24,159 24,501 0,660 -118,785 -599,1322 -1465,1636 -294,107 -571,172 -1061,249 -359,57 -554,95 -711,140 -424,122 -619,297 -619,554 0,184 96,325 283,415 93,46 219,83 357,108 113,19 477,16 615,-5 425,-67 822,-217 1215,-458 74,-45 155,-93 179,-106 79,-41 169,-24 233,44 42,44 679,962 699,1007 24,54 24,100 -2,154 -26,52 -66,85 -282,230 -466,313 -885,507 -1332,617 -383,94 -828,131 -1235,104 z" id="path866" />
      <path d="m 58759,22847 c -24,-13 -57,-43 -74,-66 l -30,-43 v -3323 -3323 l 30,-44 c 19,-27 48,-52 80,-68 l 50,-25 h 675 c 640,0 677,1 710,19 49,26 69,45 94,91 l 21,40 v 3310 3310 l -23,42 c -12,24 -41,55 -64,70 l -42,28 -691,3 -691,2 z" id="path868" />
      <path d="m 25877,20560 c -3,-8 -22,-91 -42,-185 -364,-1696 -1191,-3286 -2394,-4600 -55,-60 -101,-113 -101,-117 0,-17 384,-343 600,-509 1425,-1094 3090,-1741 4870,-1894 395,-33 693,-36 3560,-33 l 2835,3 57,28 c 69,34 131,94 166,162 l 27,50 v 2305 2305 l -24,48 c -33,67 -101,134 -169,165 l -57,27 -2970,5 c -3269,6 -3034,2 -3385,66 -645,118 -1262,389 -1777,781 -448,340 -830,775 -1102,1253 -96,170 -88,158 -94,140 z" id="path870" />
      <path d="m 19810,20497 c -560,-1028 -1532,-1776 -2669,-2057 -163,-40 -314,-67 -531,-97 -116,-16 -471,-18 -4935,-23 l -4810,-5 -3,-2395 c -2,-2377 -2,-2395 18,-2462 25,-84 95,-164 178,-205 l 57,-28 4545,-3 c 4608,-3 4861,-2 5270,33 1978,170 3828,959 5327,2273 l 142,124 -117,127 c -1027,1112 -1806,2493 -2228,3954 -65,224 -130,487 -170,677 -15,74 -30,138 -33,142 -4,4 -22,-20 -41,-55 z" id="path872" />
      <path d="m 46335,14655 c -144,-31 -259,-99 -370,-217 -155,-165 -221,-387 -181,-616 20,-113 50,-190 110,-281 90,-135 225,-236 384,-289 66,-22 96,-25 212,-26 154,-1 220,13 336,70 130,64 254,186 319,314 50,98 67,170 72,301 7,158 -10,243 -75,372 -37,75 -62,108 -132,178 -72,73 -101,94 -180,132 -52,25 -127,52 -167,61 -86,19 -244,20 -328,1 z m 328,-285 c 107,-41 196,-131 240,-244 25,-66 34,-223 17,-297 -43,-180 -174,-303 -352,-328 -209,-29 -400,74 -467,253 -104,278 26,567 284,633 72,18 207,10 278,-17 z" id="path874" />
      <path d="m 48112,14650 c -263,-69 -403,-287 -333,-518 16,-55 32,-83 71,-125 83,-91 185,-134 430,-183 231,-45 289,-79 297,-171 9,-105 -67,-157 -227,-157 -120,0 -228,29 -355,95 -75,38 -96,45 -109,36 -26,-20 -126,-170 -126,-189 0,-40 203,-151 345,-189 109,-29 339,-32 435,-5 145,40 257,130 301,244 33,82 32,223 -1,307 -32,83 -116,165 -212,210 -88,40 -114,47 -292,80 -158,29 -225,54 -262,98 -22,27 -25,38 -22,79 9,84 74,128 199,136 103,6 205,-18 314,-73 48,-25 91,-42 96,-40 4,3 36,44 69,90 41,57 60,93 58,108 -6,46 -191,144 -327,173 -95,20 -260,17 -349,-6 z" id="path876" />
      <path d="m 55600,14650 c -256,-69 -446,-257 -516,-510 -29,-102 -26,-302 4,-400 65,-205 191,-355 377,-445 212,-103 454,-99 665,11 232,121 380,372 380,643 0,201 -73,376 -215,516 -85,83 -171,136 -280,172 -113,36 -306,42 -415,13 z m 282,-261 c 284,-60 422,-380 287,-665 -133,-283 -578,-307 -746,-40 -114,179 -86,456 58,597 100,98 253,139 401,108 z" id="path878" />
      <path d="m 70640,14650 c -264,-70 -455,-265 -521,-530 -18,-71 -21,-103 -16,-205 6,-132 21,-193 73,-299 70,-139 180,-250 320,-319 111,-56 181,-71 329,-72 148,0 225,19 350,83 96,49 236,190 287,287 109,211 116,453 19,660 -90,189 -228,314 -426,381 -111,37 -303,44 -415,14 z m 282,-261 c 105,-22 197,-82 253,-164 143,-207 95,-521 -101,-656 -164,-113 -418,-92 -555,46 -200,200 -162,582 72,722 96,58 216,76 331,52 z" id="path880" />
      <path d="m 39124,14625 c -14,-22 -15,-72 -12,-467 4,-376 7,-452 22,-503 58,-210 204,-353 416,-411 89,-25 290,-24 380,0 210,57 357,205 410,412 18,71 20,112 20,524 0,333 -3,449 -12,458 -8,8 -51,12 -128,12 -77,0 -120,-4 -128,-12 -9,-9 -12,-116 -12,-418 0,-249 -4,-429 -11,-466 -30,-164 -147,-255 -328,-256 -171,-1 -300,90 -330,233 -7,31 -11,212 -11,472 0,316 -3,426 -12,435 -8,8 -52,12 -130,12 -114,0 -118,-1 -134,-25 z" id="path882" />
      <path d="m 41042,14638 c -9,-9 -12,-177 -12,-695 v -683 l 28,-11 c 31,-12 226,-8 239,4 4,5 10,210 13,455 4,377 7,447 19,447 8,0 168,-200 356,-445 188,-245 353,-451 366,-458 36,-19 246,-12 259,8 15,24 13,1363 -2,1378 -18,18 -242,16 -257,-1 -7,-10 -12,-149 -13,-453 -3,-381 -5,-439 -18,-441 -9,-1 -139,161 -340,424 -179,234 -337,438 -352,454 -26,29 -26,29 -150,29 -83,0 -128,-4 -136,-12 z" id="path884" />
      <path d="m 43022,14638 c -9,-9 -12,-176 -12,-689 v -678 l 22,-15 c 26,-18 189,-23 232,-6 l 26,10 v 683 c 0,518 -3,686 -12,695 -17,17 -239,17 -256,0 z" id="path886" />
      <path d="m 43993,14639 c -10,-10 -13,-162 -13,-691 v -678 l 25,-16 c 23,-15 59,-16 338,-11 275,4 321,7 392,26 243,64 406,224 472,461 25,92 25,338 0,430 -64,233 -237,406 -467,466 -86,23 -727,33 -747,13 z m 672,-273 c 107,-28 183,-89 226,-180 40,-85 52,-155 47,-276 -9,-200 -80,-310 -237,-371 -48,-19 -81,-23 -234,-27 -131,-3 -181,-1 -192,8 -13,11 -15,72 -15,420 0,225 3,415 6,424 5,14 30,16 178,16 110,0 189,-5 221,-14 z" id="path888" />
      <path d="m 50355,14626 c -14,-20 -15,-103 -13,-690 3,-648 4,-668 22,-682 29,-21 214,-20 244,2 21,15 22,20 22,208 0,168 2,195 16,200 9,3 91,6 182,6 192,0 275,14 372,62 339,166 330,687 -15,857 -109,54 -165,61 -507,61 h -308 z m 659,-257 c 60,-17 121,-85 137,-153 25,-113 -23,-215 -121,-260 -37,-17 -71,-21 -198,-24 -83,-2 -163,-1 -177,2 l -25,6 v 214 c 0,117 3,216 7,219 11,11 335,8 377,-4 z" id="path890" />
      <path d="m 52042,14638 c -9,-9 -12,-176 -12,-689 v -678 l 22,-15 c 20,-14 82,-16 483,-16 401,0 463,2 483,16 20,14 22,23 22,123 0,70 -4,111 -12,119 -9,9 -101,12 -355,12 -328,0 -343,1 -353,19 -11,21 -14,221 -4,259 l 6,22 h 297 c 252,0 300,2 319,16 20,14 22,23 22,119 0,81 -3,107 -16,119 -13,14 -56,16 -314,16 -286,0 -300,1 -310,19 -11,21 -14,221 -4,259 l 6,22 h 337 c 288,0 340,2 359,16 20,14 22,23 22,123 0,70 -4,111 -12,119 -17,17 -969,17 -986,0 z" id="path892" />
      <path d="m 53662,14638 c -9,-9 -12,-177 -12,-695 v -683 l 26,-10 c 15,-6 202,-10 460,-10 519,0 474,-13 474,139 0,77 -4,103 -16,115 -13,14 -58,16 -334,16 -281,0 -319,2 -324,16 -3,9 -6,260 -6,558 0,408 -3,545 -12,554 -17,17 -239,17 -256,0 z" id="path894" />
      <path d="m 57922,14638 c -8,-8 -12,-50 -12,-125 0,-113 0,-114 26,-123 14,-6 102,-10 195,-10 h 169 v -554 -555 l 22,-15 c 17,-12 48,-16 125,-16 158,0 143,-64 143,590 v 550 h 173 c 225,0 217,-5 217,135 0,81 -3,107 -16,119 -14,14 -75,16 -523,16 -381,0 -510,-3 -519,-12 z" id="path896" />
      <path d="m 59567,14632 c -16,-17 -17,-79 -17,-685 0,-789 -17,-707 144,-707 153,0 145,-12 148,235 l 3,200 126,3 c 110,2 127,0 141,-15 8,-10 68,-100 133,-201 65,-101 129,-192 143,-203 21,-16 41,-19 136,-19 122,0 152,5 160,26 3,8 -57,107 -135,225 -78,117 -143,218 -146,225 -2,7 20,25 58,45 154,83 229,213 229,399 0,242 -154,437 -379,480 -30,5 -203,10 -391,10 -314,0 -338,-1 -353,-18 z m 716,-268 c 80,-41 120,-107 120,-201 0,-92 -32,-148 -102,-185 l -54,-28 -201,2 -201,3 -3,213 -2,212 h 205 c 170,0 212,-3 238,-16 z" id="path898" />
      <path d="m 61768,14633 c -19,-23 -588,-1336 -588,-1357 0,-28 37,-36 158,-36 100,0 123,3 142,18 12,9 43,67 69,127 l 47,110 h 318 318 l 45,-105 c 63,-148 66,-150 214,-150 121,0 159,8 159,35 0,17 -564,1319 -586,1353 -14,21 -21,22 -148,22 -114,0 -135,-2 -148,-17 z m 264,-625 c 58,-134 103,-249 101,-255 -8,-19 -429,-18 -436,0 -7,19 204,497 219,497 6,0 59,-109 116,-242 z" id="path900" />
      <path d="m 63222,14638 c -9,-9 -12,-177 -12,-695 0,-664 1,-683 19,-693 25,-13 600,-13 721,-1 252,27 382,156 384,381 1,72 -3,94 -26,142 -14,31 -47,77 -71,102 -46,46 -132,96 -164,96 -10,0 6,14 35,31 118,67 175,158 175,279 1,110 -24,171 -98,246 -63,64 -125,95 -229,115 -76,14 -719,12 -734,-3 z m 699,-273 c 98,-51 91,-216 -11,-268 -30,-15 -60,-17 -225,-15 l -190,3 -3,148 -3,147 h 201 c 162,0 207,-3 231,-15 z m 4,-536 c 114,-32 160,-186 79,-270 -42,-44 -82,-50 -306,-47 l -203,3 -3,150 c -1,82 0,155 2,162 7,17 371,18 431,2 z" id="path902" />
      <path d="m 65386,14628 c -22,-35 -586,-1337 -586,-1354 0,-8 12,-19 26,-24 30,-12 240,-12 269,-1 13,5 37,49 71,127 l 52,119 h 318 318 l 47,-110 c 26,-60 57,-118 69,-127 19,-15 42,-18 142,-18 122,0 158,8 158,37 0,21 -569,1333 -588,1356 -13,15 -34,17 -148,17 -127,0 -134,-1 -148,-22 z m 173,-405 c 76,-164 201,-465 196,-473 -4,-6 -90,-10 -221,-10 -209,0 -214,0 -214,21 0,29 203,489 216,489 6,0 17,-12 23,-27 z" id="path904" />
      <path d="m 66782,14638 c -9,-9 -12,-176 -12,-689 v -678 l 22,-15 c 20,-14 80,-16 458,-16 378,0 438,2 458,16 20,14 22,23 22,119 0,81 -3,107 -16,119 -13,14 -57,16 -328,16 -229,0 -315,3 -324,12 -9,9 -12,147 -12,558 0,411 -3,549 -12,558 -17,17 -239,17 -256,0 z" id="path906" />
      <path d="m 68302,14638 c -9,-9 -12,-177 -12,-695 v -683 l 26,-10 c 14,-6 67,-10 119,-10 144,0 135,-20 138,300 l 2,265 318,3 317,2 v -265 c 0,-325 -10,-305 143,-305 77,0 108,4 125,16 l 22,15 v 674 c 0,599 -2,675 -16,689 -12,13 -39,16 -128,16 -96,0 -115,-3 -129,-18 -14,-16 -17,-54 -19,-283 l -3,-264 h -315 -315 l -3,269 c -1,178 -6,274 -13,283 -15,18 -239,19 -257,1 z" id="path908" />
   </g>
</svg>
